<?xml version="1.0" standalone="no"?>
<!DOCTYPE svg PUBLIC "-//W3C//DTD SVG 1.1//EN" "http://www.w3.org/Graphics/SVG/1.1/DTD/svg11.dtd" >
<svg xmlns="http://www.w3.org/2000/svg">
<metadata>Generated by IcoMoon</metadata>
<defs>
<font id="icomoon" horiz-adv-x="1024">
<font-face units-per-em="1024" ascent="960" descent="-64" />
<missing-glyph horiz-adv-x="1024" />
<glyph unicode="&#x20;" horiz-adv-x="512" d="" />
<glyph unicode="&#xe900;" glyph-name="搜索(1)" d="M18.944 549.888c0-226.304 184.32-410.624 410.624-410.624 82.944 0 159.744 24.576 224.256 67.072l253.44-253.44c11.264-11.264 26.112-16.896 40.448-16.896s29.184 5.632 40.448 16.896c22.528 22.528 22.528 58.88 0 81.408l-248.32 248.32c61.952 71.68 99.84 165.376 99.84 267.264 0 226.304-184.32 410.624-410.624 410.624s-410.112-184.32-410.112-410.624zM133.632 549.888c0 162.816 132.608 295.424 295.424 295.424s295.424-132.608 295.424-295.424-132.608-295.424-295.424-295.424-295.424 132.608-295.424 295.424z" />
<glyph unicode="&#xe901;" glyph-name="向下" d="M534.528 183.296l479.232 479.232c13.824 13.824 13.824 36.352 0 50.176s-36.352 13.824-50.688 0l-455.68-455.68-448 448c-13.312 13.312-35.328 13.312-49.152 0s-13.824-35.328 0-49.152l465.408-465.408c2.048-2.048 4.096-2.56 6.144-4.096 1.024-1.024 1.024-2.56 2.048-3.584 14.336-13.312 36.864-13.312 50.688 0.512v0z" />
<glyph unicode="&#xe902;" glyph-name="帮助与反馈" d="M519.168 725.504c-52.736 0-94.208-14.848-124.416-45.568-27.136-27.136-41.984-62.464-44.544-107.008-0.512-5.12 0-15.872 8.704-15.872 19.456 0 38.4 0 57.856 0 2.56 0 8.192 0 8.192 11.776 0 25.6 7.68 46.080 18.944 60.928 14.336 20.992 37.888 30.72 70.144 30.72 25.6 0 46.592-7.168 60.928-21.504 13.824-14.336 20.992-33.792 20.992-58.88 0-18.432-7.168-35.84-19.968-52.224l-12.288-13.824c-44.544-39.424-71.68-68.608-80.896-88.576-10.24-18.432-14.336-41.472-14.336-68.096 0 0 0-12.288 9.216-12.288 16.384 0 50.176 0 58.88 0 8.192 0 8.192 12.288 8.192 12.288 0 17.408 3.584 32.768 11.264 47.104 6.656 12.8 16.384 25.6 30.208 37.376 33.792 29.184 53.76 48.128 59.904 55.808 17.92 23.040 27.136 52.224 27.136 87.040 0 43.008-14.336 77.312-43.008 102.4-28.16 26.112-65.024 38.4-111.104 38.4zM506.368 272.896c-14.336 0-27.136-4.096-37.376-14.336-10.24-9.216-14.848-21.504-14.848-36.352 0-14.336 5.12-26.624 14.848-36.352 10.24-10.24 23.040-14.848 37.376-14.848s27.136 5.12 37.376 14.336c10.24 10.24 15.872 22.016 15.872 37.376 0 14.848-5.12 27.136-14.848 36.352-10.24 9.728-23.552 13.824-38.4 13.824zM867.84 792.064c-196.096 188.928-515.072 188.928-711.68 0-95.232-91.648-147.968-214.016-147.968-344.064s52.224-252.416 147.968-344.064c98.304-94.72 226.816-141.824 355.84-141.824s257.536 47.104 355.84 141.824c95.232 91.648 147.968 214.016 147.968 344.064-0.512 130.56-52.736 252.416-147.968 344.064zM823.296 150.016c-171.52-165.376-450.56-165.376-622.080 0-82.432 79.36-128 185.344-128 297.984s45.568 218.112 128 297.984c85.504 82.432 198.656 123.904 311.296 123.904s225.28-41.472 311.296-123.904c82.432-79.36 128-185.344 128-297.984-0.512-112.64-46.080-218.112-128.512-297.984z" />
<glyph unicode="&#xe903;" glyph-name="编辑" d="M882.688 525.312c-24.576 0-44.544-19.968-44.544-44.544v-420.864c0-15.872-7.168-26.112-8.192-27.136l-667.136-0.512c-3.072 1.536-10.24 11.264-10.24 27.648v803.84h373.248c24.576 0 44.544 19.968 44.544 44.544s-19.968 44.544-44.544 44.544h-417.792c-24.576 0-44.544-19.968-44.544-44.544v-848.384c0-64 44.032-116.224 97.792-116.224h669.184c54.784 0 97.792 51.2 97.792 116.224v420.864c-0.512 24.576-20.48 44.544-45.568 44.544zM305.152 425.984l-3.584-133.12c-1.536-20.48 5.632-40.96 20.48-54.784 12.288-11.776 29.184-18.432 47.616-18.432 3.072 0 6.144 0 9.728 0.512l138.24 23.040c20.992 2.56 40.96 12.8 55.296 29.184 0 0 0 0 0 0l340.992 388.096c30.72 34.816 47.104 78.336 47.104 122.88 0 46.592-18.432 88.064-51.712 117.248-67.072 58.88-174.080 47.616-238.592-26.112l-338.432-385.536c-15.872-16.384-25.088-37.888-27.136-62.976zM394.24 421.376c0.512 3.072 2.048 6.656 4.608 9.216l338.432 385.536c31.744 35.84 82.944 44.032 112.64 17.92 13.824-12.288 21.504-30.208 21.504-50.688 0-22.528-8.704-45.056-24.576-63.488l-340.992-388.096-114.176-18.944 2.56 108.544z" />
<glyph unicode="&#xe904;" glyph-name="待缴费通知" d="M513.024 492.544l-49.664 69.632c-7.68 10.752-22.528 12.8-32.768 5.632-10.752-7.68-12.8-22.528-5.632-32.768l36.864-51.2h-34.816c-13.312 0-24.064-10.752-24.064-24.064s10.752-24.064 24.064-24.064h59.904v-19.456h-59.904c-13.312 0-24.064-10.752-24.064-24.064s10.752-24.064 24.064-24.064h59.904v-28.672c0-11.776 10.752-20.992 24.064-20.992s24.064 9.216 24.064 20.992v28.672h59.904c13.312 0 24.064 10.752 24.064 24.064s-10.752 24.064-24.064 24.064h-59.904v19.456h59.904c13.312 0 24.064 10.752 24.064 24.064s-10.752 24.064-24.064 24.064h-30.72l35.84 51.712c7.168 10.752 4.608 25.6-6.144 32.768s-25.6 4.608-32.768-6.144l-48.128-69.632zM512 960c-282.112 0-512-229.888-512-512s229.888-512 512-512 512 229.888 512 512c0 282.112-229.888 512-512 512zM703.488 486.912c0 0 0 0.512 0 0v-22.016c0-3.072 0-6.144 0-9.216 0-2.56 0-5.12 0-7.168 0-105.472-86.016-191.488-191.488-191.488-105.984 0-191.488 85.504-191.488 191.488 0 105.472 86.016 191.488 191.488 191.488 2.048 0 4.096 0 6.144 0 3.584 0 7.168 0 10.24 0v0h175.104v-153.088z" />
<glyph unicode="&#xe905;" glyph-name="地址管理" d="M512 948.736c-189.44 0-343.040-156.672-343.040-349.696 0-74.24 22.528-142.848 60.928-199.168 2.048-3.072 3.584-6.144 5.632-9.216l233.472-300.032c11.776-15.36 27.136-23.040 42.496-23.040s30.72 7.68 42.496 23.040l233.472 300.032c2.048 3.072 4.096 6.144 5.632 9.216 38.4 56.832 61.44 125.44 61.44 199.168 0.512 193.536-153.088 349.696-342.528 349.696zM737.28 439.808l-3.072-5.12-1.024-2.048-221.184-284.16-221.184 283.648-4.608 7.68c-31.744 47.104-48.64 101.888-48.64 159.232 0 154.112 122.88 279.552 274.432 279.552s274.432-125.44 274.432-279.552c0-57.344-16.896-112.128-49.152-159.232v0zM512 738.816c-75.776 0-137.216-62.464-137.216-139.776s61.44-139.776 137.216-139.776c75.776 0 137.216 62.464 137.216 139.776s-61.44 139.776-137.216 139.776zM512 529.408c-37.888 0-68.608 31.232-68.608 70.144 0 38.4 30.72 70.144 68.608 70.144s68.608-31.232 68.608-70.144c0-38.912-30.72-70.144-68.608-70.144zM512-52.736c-153.088 0-441.856 29.696-441.856 140.8 0 69.632 113.152 104.448 208.384 121.856 16.896 3.072 32.768-8.192 35.84-25.088s-8.192-32.768-25.088-35.84c-123.904-22.016-156.16-54.272-157.184-60.928 4.096-21.504 126.976-78.336 379.904-78.336s375.808 57.344 379.904 78.848c-1.536 7.168-36.864 41.472-174.592 63.488-16.896 2.56-28.672 18.432-25.6 35.328s18.944 28.672 35.328 25.6c103.424-16.384 226.816-51.2 226.816-124.928 0-111.616-288.768-140.8-441.856-140.8z" />
<glyph unicode="&#xe906;" glyph-name="挂号记录" d="M828.928 863.744h-46.592v58.368c0 17.92-14.336 32.256-32.256 32.256s-32.256-14.336-32.256-32.256v-58.368h-174.080v58.368c0 17.92-14.336 32.256-32.256 32.256s-32.256-14.336-32.256-32.256v-58.368h-174.080v58.368c0 17.92-14.336 32.256-32.256 32.256s-32.256-14.336-32.256-32.256v-58.368h-46.592c-63.488 0-114.688-51.712-114.688-114.688v-692.736c0-63.488 51.712-114.688 114.688-114.688h633.856c63.488 0 114.688 51.712 114.688 114.688v692.736c1.024 63.488-50.176 114.688-113.664 114.688zM879.616 56.32c0-27.648-22.528-50.176-50.176-50.176h-633.856c-27.648 0-50.176 22.528-50.176 50.176v692.736c0 27.648 22.528 50.176 50.176 50.176h46.592v-58.368c0-17.92 14.336-32.256 32.256-32.256s32.256 14.336 32.256 32.256v58.368h174.080v-58.368c0-17.92 14.336-32.256 32.256-32.256s32.256 14.336 32.256 32.256v58.368h174.080v-58.368c0-17.92 14.336-32.256 32.256-32.256s32.256 14.336 32.256 32.256v58.368h46.592c27.648 0 50.176-22.528 50.176-50.176v-692.736zM758.784 591.36h-498.176c-17.92 0-32.256-14.336-32.256-32.256s14.336-32.256 32.256-32.256h498.176c17.92 0 32.256 14.336 32.256 32.256s-14.848 32.256-32.256 32.256zM579.072 388.096h-318.464c-17.92 0-32.256-14.336-32.256-32.256s14.336-32.256 32.256-32.256h318.464c17.92 0 32.256 14.336 32.256 32.256s-14.336 32.256-32.256 32.256z" />
<glyph unicode="&#xe907;" glyph-name="关联档案" d="M1003.52 375.296v-384h-984.576v384c26.624 47.104 47.616 97.28 63.488 148.992 19.968 102.912 27.648 208.384 41.472 312.32 4.608 23.040 10.24 46.080 17.408 68.608h739.84c5.12-8.192 9.216-17.408 11.776-26.624 10.752-81.408 23.040-162.304 30.208-243.712 3.584-92.16 31.232-181.76 80.384-259.584v0zM129.536 397.824h188.928c10.24 2.048 20.48-0.512 28.672-7.168 7.68-6.656 12.288-16.384 11.776-26.624 4.096-81.408 70.656-145.408 152.064-145.408 81.408-0.512 148.992 62.976 153.6 144.384-0.512 10.752 4.096 20.992 12.288 28.16s19.456 9.728 29.696 7.168h187.392l-54.272 444.928h-655.872l-54.272-445.44zM513.024 788.992h192.512c21.504 0 39.936-4.096 39.936-30.208s-18.432-30.208-39.936-30.208h-388.096c-21.504 0-39.936 4.096-39.936 30.208s18.432 30.208 39.936 30.208h195.584zM512 607.232h-192.512c-22.528 0-43.008 2.56-41.984 30.72 0.512 26.112 19.968 29.184 40.96 29.184h385.024c22.528 0 43.008-2.56 41.984-30.72-0.512-26.112-19.968-29.184-40.96-29.184h-192.512zM508.416 485.376h-189.952c-22.528 0-42.496 3.584-41.472 31.744 1.024 26.112 20.48 28.16 41.472 28.16h385.024c22.528 0 42.496-3.584 41.472-31.744-1.024-26.112-20.48-28.672-41.472-28.672l-195.072 0.512z" />
<glyph unicode="&#xe908;" glyph-name="家人健康" d="M896 936.96h-768c-67.072 0-121.856-54.784-121.856-121.856v-734.208c0-67.072 54.784-121.856 121.856-121.856h768c67.072 0 121.856 54.784 121.856 121.856v734.208c0 67.072-54.784 121.856-121.856 121.856zM949.76 80.896c0-29.696-24.064-53.248-53.248-53.248h-768.512c-29.184 0-53.248 24.064-53.248 53.248v256.512h179.2c13.824 0 26.112 8.192 31.232 20.48l23.552 54.784 105.984-269.312c5.12-13.312 17.92-21.504 31.744-21.504 1.024 0 1.536 0 2.56 0 14.848 1.024 27.136 11.776 30.72 26.624l87.040 382.976 36.352-146.944c3.584-15.36 17.408-26.112 33.28-26.112h196.608c18.944 0 34.304 15.36 34.304 34.304s-15.36 34.304-34.304 34.304h-169.984l-64.512 260.096c-3.584 15.36-17.408 24.576-33.28 26.112-15.872 0-29.184-11.264-32.768-26.624l-94.72-415.232-95.744 243.712c-5.12 12.8-17.408 21.504-31.232 21.504-14.336 0.512-26.624-8.192-31.744-20.48l-47.104-110.592h-156.672v409.088c0 29.696 24.064 53.248 53.248 53.248h767.488c29.184 0 53.248-24.064 53.248-53.248v-733.696z" />
<glyph unicode="&#xe909;" glyph-name="缴费记录" d="M834.048 880.128h-124.928c-15.36 41.984-54.784 72.192-101.888 72.192h-190.464c-47.104 0-87.040-30.208-101.888-72.192h-124.928c-64.512 0-116.736-52.224-116.736-116.736v-703.488c0-64.512 52.224-116.736 116.736-116.736h644.096c64.512 0 116.736 52.224 116.736 116.736v704c0 64-52.736 116.224-116.736 116.224zM416.768 886.784h190.464c24.064 0 43.52-19.456 43.52-43.52s-19.456-43.52-43.52-43.52h-190.464c-24.064 0-43.52 19.456-43.52 43.52s19.456 43.52 43.52 43.52zM885.248 60.416c0-28.16-23.040-51.2-51.2-51.2h-644.096c-28.16 0-51.2 23.040-51.2 51.2v703.488c0 28.16 23.040 51.2 51.2 51.2h122.368c12.8-46.080 54.272-80.384 104.448-80.384h190.464c50.176 0 92.16 34.304 104.448 80.384h122.368c28.16 0 51.2-23.040 51.2-51.2v-703.488zM658.432 394.24c17.92 0 32.768 14.848 32.768 32.768s-14.848 32.768-32.768 32.768h-89.088l97.28 89.088c13.312 12.288 14.336 32.768 2.048 46.080s-32.768 14.336-46.080 2.048l-123.904-113.664-109.568 112.64c-12.8 12.8-33.28 13.312-46.080 0.512s-13.312-33.28-0.512-46.080l88.576-90.624h-60.928c-17.92 0-32.768-14.848-32.768-32.768s14.848-32.768 32.768-32.768h102.4v-69.12h-102.4c-17.92 0-32.768-14.848-32.768-32.768s14.848-32.768 32.768-32.768h102.4v-80.896c0-17.92 14.848-32.768 32.768-32.768s32.768 14.848 32.768 32.768v80.896h120.32c17.92 0 32.768 14.848 32.768 32.768s-14.848 32.768-32.768 32.768h-120.32v69.12h120.32z" />
<glyph unicode="&#xe90a;" glyph-name="配送" d="M1024 673.792h-177.664v-84.992h101.376v-44.544h-101.376v-84.48h114.176v-44.544h-114.176v-84.48h139.264v-44.544h-139.264v-65.024h-76.8c0-59.392-48.128-108.032-108.032-108.032-59.392 0-108.032 48.128-108.032 108.032h-261.12c0-59.392-48.128-108.032-108.032-108.032s-108.032 48.128-108.032 108.032h-76.8v284.672l167.424 167.424h121.344v111.616h557.568v-66.048h178.176v-45.056zM288.768 616.96l-92.672-0.512-134.144-134.144v-73.728h226.816v208.384z" />
<glyph unicode="&#xe90b;" glyph-name="七夕优惠" d="M514.56 957.952c-281.6 0-510.976-229.376-510.976-510.976s229.376-510.976 510.976-510.976 510.976 229.376 510.976 510.976c0 281.6-229.376 510.976-510.976 510.976zM500.736 263.68h-142.848c-4.608 0-9.216 2.048-12.288 5.12s-5.12 7.68-5.12 12.288v172.032h160.768v-189.44zM683.52 268.8c-3.072-3.072-7.68-5.12-12.288-5.12h-142.848v189.44h160.256v-172.032c0-4.608-1.536-9.216-5.12-12.288zM705.024 466.944h-175.616v84.992c-4.096 0.512-8.192 1.024-12.288 1.536v0 0 0h-0.512c0 0 0 0-0.512 0-5.632-0.512-11.264-1.536-16.896-2.048v-84.48h-175.616v67.584c0 10.752 8.704 19.456 19.456 19.456h79.872c-21.504 4.608-37.376 13.824-38.4 30.72-0.512 19.968 22.016 52.224 54.784 45.056 33.792-7.68 57.856-33.792 75.776-56.32 18.432 23.040 44.544 52.736 79.872 57.344 29.696 3.584 54.272-25.6 51.2-45.568-2.56-16.896-18.944-26.624-39.936-30.72h78.848c10.752 0 19.456-8.704 19.456-19.456v-68.096z" />
<glyph unicode="&#xe90c;" glyph-name="删除" d="M986.624 691.2c0 79.872-65.024 144.384-144.384 144.384h-103.424v29.696c0 48.64-39.424 88.064-87.552 88.064h-277.504c-48.64 0-88.064-39.424-88.064-88.064v-29.696h-103.424c-79.872 0-144.896-65.024-144.896-144.384 0-55.296 31.744-102.912 77.312-126.976v-530.432c0-50.688 40.96-91.648 91.648-91.648h610.816c50.688 0 91.648 40.96 91.648 91.648v530.432c46.080 24.576 77.824 71.68 77.824 126.976zM373.76 867.328l278.016-1.024v-29.696h-278.528l0.512 30.72zM182.272 749.568h659.456c32.256 0 57.856-26.112 57.856-57.856 0-32.256-26.112-58.368-57.856-58.368h-659.456c-32.256 0-58.368 26.112-58.368 58.368 0 31.744 26.112 57.856 58.368 57.856zM817.664 28.672h-610.816c-2.56 0-5.12 2.56-5.12 5.12v513.024h101.888v-271.872c0-24.064 19.456-43.52 43.52-43.52s43.52 19.456 43.52 43.52v271.872h239.104v-271.872c0-24.064 19.456-43.52 43.52-43.52s43.52 19.456 43.52 43.52v271.872h107.52v-512.512c-1.536-3.072-4.096-5.632-6.656-5.632z" />
<glyph unicode="&#xe90d;" glyph-name="设为默认选项" d="M512 960c-282.112 0-512-229.888-512-512s229.888-512 512-512 512 229.888 512 512-229.888 512-512 512zM512 27.136c-231.936 0-420.864 188.928-420.864 420.864s188.928 420.864 420.864 420.864c231.936 0 420.864-188.928 420.864-420.864s-188.928-420.864-420.864-420.864z" />
<glyph unicode="&#xe90e;" glyph-name="设置" d="M512.512 655.36c-0.512 0-1.024 0-1.024 0-113.152 0-206.336-92.16-207.36-205.824-0.512-55.296 20.48-107.52 59.392-146.944 39.424-39.936 91.648-61.952 147.968-62.464 0.512 0 1.024 0 1.536 0 113.152 0 205.824 91.136 206.336 204.288 0.512 56.832-20.48 110.080-59.392 149.504-39.424 39.424-91.648 61.44-147.456 61.44zM511.488 303.104c-39.424 0.512-76.288 15.872-103.424 43.52s-41.984 64-41.472 102.4c1.024 79.36 65.536 143.872 144.896 143.872 0.512 0 0.512 0 1.024 0 39.424 0 75.776-15.36 102.912-43.008s41.984-65.024 41.472-104.96c-1.024-78.848-67.072-142.336-145.408-141.824zM1022.464 465.92c-6.144 41.984-34.816 78.336-75.776 96.768-51.2 23.040-63.488 44.544-52.224 93.696 1.024 3.584 2.048 7.168 3.584 10.752 1.536 4.608 3.584 9.216 4.608 13.312 2.048 7.168 4.096 14.848 5.632 22.528l2.56 10.24c0.512 3.072 1.024 5.632 1.024 8.704-2.56 68.096-50.176 118.272-115.2 122.368-18.944 1.024-39.936-2.56-64-10.752-47.616-16.384-71.68-8.704-96.768 30.72-3.584 5.632-6.144 12.288-9.728 19.456-22.016 48.64-61.952 75.776-113.152 76.288-51.712-1.024-91.648-26.112-114.176-74.752l-2.048-4.096c-1.536-3.584-3.584-7.68-5.632-11.264-21.504-39.936-40.448-48.64-83.968-39.936-6.656 1.536-13.824 4.096-21.504 7.168l-3.072 1.024c-36.864 13.824-76.288 10.24-109.056-9.216-31.744-18.944-52.224-51.2-56.832-88.576-3.072-26.112 3.584-52.224 9.216-69.632 17.92-50.688 4.608-71.168-12.8-85.504-11.264-9.216-25.088-16.896-38.912-23.552-48.128-23.552-74.24-64-73.728-114.176s26.624-90.112 74.24-112.128l5.632-2.56c4.096-2.048 8.192-4.096 12.288-6.144 38.4-21.504 45.568-37.376 38.4-80.384-1.536-7.68-4.608-16.896-7.68-26.112l-2.048-5.12c-11.264-32.256-9.216-66.56 5.632-96.768 15.36-30.208 41.472-52.224 73.728-62.464 29.184-9.216 57.856-7.168 91.648 5.632 45.568 17.92 71.168 10.24 96.768-31.232 3.072-5.12 5.632-10.752 8.192-16.384 0 0 1.024-2.56 1.024-2.56 22.016-48.64 62.464-75.264 113.664-75.264 0 0 0.512 0 0.512 0 50.688 0 91.136 26.624 113.664 75.264 6.144 12.8 12.8 24.576 20.48 34.816 16.896 24.064 33.28 25.088 45.056 23.040 20.48-3.072 36.864-7.168 51.2-11.776 34.816-12.288 72.704-9.216 103.936 8.192 30.72 17.408 52.224 46.080 59.904 81.408 7.168 30.208 0 57.344-7.68 79.872-13.312 38.4-13.312 56.832 0.512 72.192 8.192 9.216 19.968 16.896 32.768 25.6 5.632 3.584 10.752 7.168 15.872 10.752 3.072 2.048 6.144 3.584 9.216 5.12 6.656 3.584 15.36 7.68 22.528 14.336 33.28 28.672 49.152 69.12 42.496 111.104zM939.008 401.408c-2.048-1.536-6.144-4.096-10.24-6.144-5.632-3.072-11.264-6.144-16.384-9.728-4.608-3.072-9.216-6.656-14.336-9.728-14.848-9.728-32.256-20.992-45.568-36.352-42.496-47.616-22.528-105.984-12.8-134.144 7.168-19.968 8.704-33.28 6.144-45.056-4.096-17.408-14.336-31.744-29.696-40.448-15.872-8.704-34.304-10.24-52.736-3.584-17.92 6.144-37.888 11.264-62.464 14.848-29.184 4.096-71.168-0.512-105.472-48.128-9.728-13.312-18.944-28.672-26.624-45.056-12.288-26.112-30.72-38.912-57.344-38.912 0 0 0 0-0.512 0-26.112 0-44.544 12.8-57.344 40.96-3.584 7.68-7.168 16.384-12.288 24.576-28.672 46.080-65.536 69.12-110.080 69.12-19.456 0-39.936-4.096-62.464-13.312-19.968-7.68-34.816-9.216-50.176-4.096-15.872 5.12-28.672 15.872-36.352 30.72s-8.192 31.744-2.56 47.616l1.536 5.12c4.096 10.752 8.192 23.040 10.752 36.352 11.776 68.608-8.192 110.592-69.12 145.408-5.632 3.072-11.264 5.632-16.896 8.192l-5.632 2.56c-25.6 11.776-37.888 30.208-37.888 55.808 0 26.112 12.288 44.544 38.912 57.344 17.408 8.192 35.328 17.92 51.712 31.744 44.032 36.864 54.272 88.576 31.232 154.112-5.632 15.36-7.68 30.208-6.144 40.96 2.048 18.432 11.776 33.792 27.136 43.008 15.872 9.728 35.84 11.264 54.784 4.096l3.072-1.024c9.216-3.584 19.456-7.168 31.232-9.728 70.656-14.848 117.76 7.68 152.064 71.68 2.56 5.12 5.12 10.24 7.168 14.848l1.536 3.584c12.288 26.112 31.744 38.912 56.832 38.4 26.624 0 45.056-12.8 57.344-39.936 4.096-8.704 8.192-17.408 13.312-26.112 40.448-64 96.256-82.432 170.496-56.32 15.872 5.632 29.184 8.192 39.424 7.68 32.256-2.048 53.248-24.576 56.32-58.368l-1.536-6.656c-1.536-6.144-3.072-12.8-4.608-19.456-1.024-3.072-2.048-6.144-3.072-9.216-2.56-6.144-4.608-12.288-6.144-18.944-17.92-78.848 9.216-129.536 88.064-164.864 22.016-9.728 36.352-27.648 39.424-48.64 2.56-19.968-5.12-39.936-22.016-54.784z" />
<glyph unicode="&#xe90f;" glyph-name="消息" d="M512 960c-282.112 0-512-229.888-512-512s229.888-512 512-512 512 229.888 512 512c0 282.112-229.888 512-512 512zM666.112 242.688c0-18.944-14.848-28.16-34.304-19.456l-137.216 88.064h-68.608c-38.4 0-68.608 30.72-68.608 68.608v137.216c0 37.888 30.72 68.608 68.608 68.608h68.608l137.216 88.064c18.944 8.192 34.304-0.512 34.304-19.456v-411.648z" />
<glyph unicode="&#xe910;" glyph-name="已设为默认选项" d="M512 960c-282.112 0-512-229.888-512-512s229.888-512 512-512 512 229.888 512 512-229.888 512-512 512zM820.224 580.608l-334.848-348.16c-11.776-12.288-27.648-18.432-43.52-18.432-12.288 0-25.088 4.096-35.84 11.776l-195.584 144.384c-26.624 19.456-32.256 57.344-12.8 83.968s57.344 32.256 83.968 12.8l153.088-113.152 297.984 310.272c23.040 24.064 60.928 24.576 84.992 1.536 25.088-23.040 25.6-60.928 2.56-84.992z" />
<glyph unicode="&#xe911;" glyph-name="暂无信息" d="M157.696 829.952h707.584c11.264 0 22.528-5.632 22.528-16.896 45.056-129.024 89.6-263.68 129.024-392.704v-331.264c0-5.632 0-16.896-5.632-16.896-5.632-5.632-11.264-5.632-22.528-5.632h-948.736c-11.264 0-22.528 0-28.16 5.632s-5.632 16.896-5.632 28.16v308.736c0 11.264 5.632 22.528 5.632 28.16 39.424 123.392 83.968 252.416 123.392 376.32 11.264 10.752 16.896 16.384 22.528 16.384v0zM180.224 790.528l-117.76-353.792h291.84c5.632 0 16.896 0 16.896-5.632 5.632-5.632 5.632-16.896 5.632-22.528 0-39.424 22.528-78.336 56.32-100.864 22.528-16.896 56.32-28.16 83.968-22.528 33.792 0 67.584 16.896 89.6 45.056 22.528 22.528 33.792 50.688 33.792 83.968 0 5.632 0 16.896 5.632 22.528s11.264 5.632 22.528 5.632h291.84l-117.76 353.792c-213.504-5.632-437.76-5.632-662.528-5.632v0zM56.832 391.68v-286.208h920.576v286.208h-286.208c-5.632-50.688-39.424-100.864-83.968-129.024-33.792-22.528-78.336-28.16-117.76-22.528s-78.336 28.16-100.864 56.32c-22.528 28.16-39.424 61.952-45.056 95.232h-286.72z" />
<glyph unicode="&#xe912;" glyph-name="账单筛选页面的选择圈圈" d="M512 952.832c-278.528 0-504.832-226.304-504.832-504.832s226.304-504.832 504.832-504.832c278.528 0 504.832 226.304 504.832 504.832s-226.304 504.832-504.832 504.832zM512 8.704c-242.176 0-439.296 197.12-439.296 439.296s197.12 439.296 439.296 439.296c242.176 0 439.296-197.12 439.296-439.296s-197.12-439.296-439.296-439.296z" />
<glyph unicode="&#xe913;" glyph-name="这里是提示语" d="M512 937.984c-270.336 0-489.984-219.136-489.984-489.984s219.136-489.984 489.984-489.984 489.984 219.136 489.984 489.984-219.648 489.984-489.984 489.984v0zM512-11.264c-252.928 0-459.264 205.824-459.264 459.264 0 252.928 205.824 459.264 459.264 459.264s459.264-205.824 459.264-459.264c0-252.928-206.336-459.264-459.264-459.264v0zM512 333.312c16.896 0 30.72 16.384 30.72 36.352v300.544c0 19.968-13.824 36.352-30.72 36.352s-30.72-16.384-30.72-36.352v-300.544c0-19.968 13.824-36.352 30.72-36.352v0zM465.92 235.52c0-16.384 8.704-31.744 23.040-39.936s31.744-8.192 46.080 0c14.336 8.192 23.040 23.552 23.040 39.936s-8.704 31.744-23.040 39.936c-14.336 8.192-31.744 8.192-46.080 0s-23.040-23.552-23.040-39.936v0z" />
<glyph unicode="&#xe914;" glyph-name="正在建设中" d="M898.048 603.648h-847.36v-438.272c0-35.84 27.648-63.488 63.488-63.488h508.416c12.8 0 20.992-8.704 20.992-20.992 0-12.8-8.704-20.992-20.992-20.992h-508.416c-59.392 0-105.984 46.592-105.984 105.984v571.392c0 59.392 46.592 105.984 105.984 105.984h720.384c59.392 0 105.984-46.592 105.984-105.984v-182.272c0-12.8-8.704-20.992-20.992-20.992s-20.992 8.704-20.992 20.992v48.64zM898.048 646.144v91.136c0 35.84-27.648 63.488-63.488 63.488h-720.384c-35.84 0-63.488-27.648-63.488-63.488v-91.136h847.36zM686.592 698.88c-12.8 0-20.992 8.704-20.992 20.992s8.704 20.992 20.992 20.992c12.8 0 20.992-8.704 20.992-20.992s-8.704-20.992-20.992-20.992v0zM750.080 698.88c-12.8 0-20.992 8.704-20.992 20.992s8.704 20.992 20.992 20.992c12.8 0 20.992-8.704 20.992-20.992s-8.192-20.992-20.992-20.992v0zM813.568 698.88c-12.8 0-20.992 8.704-20.992 20.992s8.704 20.992 20.992 20.992c12.8 0 20.992-8.704 20.992-20.992s-8.192-20.992-20.992-20.992v0zM349.696 449.024c6.144 10.752 18.944 12.8 29.696 8.704 10.752-6.144 12.8-18.944 8.704-29.696l-105.984-184.32c-6.144-10.752-18.944-12.8-29.696-8.704s-12.8 18.944-8.704 29.696l105.984 184.32zM218.112 442.88l-57.344-93.184 57.344-97.28c6.144-10.752 2.048-23.552-8.704-29.696s-23.552-2.048-29.696 8.704l-70.144 118.784 70.144 114.176c6.144 10.752 18.944 12.8 29.696 6.144 10.752-4.608 13.312-16.896 8.704-27.648v0zM413.184 251.904l57.344 97.28-57.344 93.184c-6.144 10.752-2.048 23.552 6.144 29.696 10.752 6.144 23.552 2.048 29.696-6.144l70.144-114.176-70.144-118.784c-6.144-10.752-18.944-12.8-29.696-8.704-8.192 4.608-10.24 19.456-6.144 27.648v0zM1010.688 379.392l4.096-10.752-42.496-52.736c-8.704-10.752-8.704-27.648 0-37.888l40.448-48.64-4.096-11.264c-8.704-27.648-23.552-52.736-40.448-74.24l-8.704-10.752-63.488 10.752c-12.8 2.048-27.648-6.144-31.744-18.944l-20.992-63.488-10.752-2.048c-33.792-8.704-72.192-8.704-105.984 0l-12.8 2.048-20.992 63.488c-4.096 12.8-18.944 20.992-31.744 18.944l-65.536-10.752-8.704 8.704c-8.704 10.752-16.896 20.992-23.552 33.792-8.704 12.8-14.848 27.648-18.944 42.496l-4.096 10.752 42.496 50.688c8.704 10.752 8.704 27.648 0 37.888l-42.496 50.688 4.096 10.752c10.752 27.648 23.552 52.736 42.496 76.288l8.704 8.704 63.488-10.752c12.8-2.048 27.648 6.144 31.744 18.944l23.552 63.488 10.752 2.048c33.792 6.144 70.144 6.144 103.936 0l12.8-2.048 20.992-61.44c4.096-12.8 18.944-20.992 31.744-20.992l65.536 8.704 8.704-8.704c8.704-10.752 16.896-20.992 23.552-33.792 7.68-12.288 13.824-25.088 18.432-39.936v0zM955.392 400.384l-12.8 18.944-40.448-4.096c-33.792-4.096-67.584 16.896-78.336 48.64l-12.8 37.888c-20.992 4.096-42.496 4.096-63.488 0l-14.848-40.448c-10.752-31.744-46.592-52.736-78.336-46.592l-37.888 6.144c-10.752-12.8-16.896-27.648-23.552-42.496l27.648-31.744c20.992-25.6 20.992-65.536 0-93.184l-27.648-31.744c4.096-8.704 6.144-16.896 12.8-25.6 4.096-6.144 6.144-12.8 10.752-16.896l42.496 6.144c33.792 4.096 67.584-16.896 78.336-48.64l12.8-40.448c20.992-4.096 42.496-4.096 63.488 0l14.848 42.496c10.752 31.744 46.592 52.736 78.336 46.592l37.888-6.144c8.704 12.8 16.896 27.648 23.552 42.496l-25.6 29.696c-20.992 25.6-20.992 65.536-2.048 91.136l27.648 33.792c-4.096 7.168-8.704 15.872-12.8 24.064v0zM779.776 190.976c-59.392 0-105.984 46.592-105.984 105.984s46.592 105.984 105.984 105.984 105.984-46.592 105.984-105.984c0-57.344-49.152-105.984-105.984-105.984v0zM779.776 232.96c35.84 0 63.488 27.648 63.488 63.488s-27.648 63.488-63.488 63.488c-35.84 0-63.488-27.648-63.488-63.488s27.136-63.488 63.488-63.488v0z" />
<glyph unicode="&#xe915;" glyph-name="到店支付" d="M837.12 942.592h-650.752c-96.256 0-175.104-77.824-175.104-172.544v-644.096c0-95.232 78.848-172.544 175.104-172.544h650.752c96.768 0 175.104 77.312 175.104 172.544v644.096c0 94.72-78.336 172.544-175.104 172.544zM193.024 845.312h637.952c21.504 0 38.4-16.384 38.4-38.4 0-21.504-16.384-38.4-38.4-38.4h-637.952c-21.504 0-38.4 16.384-38.4 38.4s16.896 38.4 38.4 38.4zM881.152 101.888c0-23.040-25.6-51.2-48.64-51.2h-642.048c-23.040 0-48.64 28.16-48.64 51.2v246.784c10.752-3.072 22.528-5.12 34.304-5.12 50.688 0 94.208 30.72 112.128 74.752 17.408-43.52 60.928-74.752 111.104-74.752 50.688 0 94.208 30.72 112.128 74.752 17.408-43.52 60.928-74.752 111.104-74.752s93.184 30.72 111.104 74.752c17.92-43.52 61.44-74.752 112.128-74.752 11.776 0 23.552 1.536 34.304 5.12v-246.784zM846.336 424.448c-62.464 0-112.128 49.664-112.128 109.568 0-61.44-49.664-109.568-111.104-109.568s-111.104 49.664-111.104 109.568c0-61.44-51.2-109.568-112.128-109.568s-111.104 49.664-111.104 109.568c0-61.44-51.2-109.568-112.128-109.568-61.44 0-111.104 49.664-111.104 109.568l76.8 200.192h737.28l78.848-199.68c0-61.44-50.688-110.080-112.128-110.080z" />
<glyph unicode="&#xe916;" glyph-name="地址" d="M512-64l-18.944 15.872c-4.096 3.072-97.28 80.896-192 193.024-55.808 66.56-100.864 131.072-133.12 192-41.472 78.336-62.464 151.552-62.464 217.6 0 54.784 10.752 108.032 31.744 158.208 20.48 48.64 49.664 91.648 87.040 129.024s80.896 66.56 129.024 87.040c50.176 20.992 103.424 31.744 158.208 31.744s108.032-10.752 158.208-31.744c48.64-20.48 91.648-49.664 129.024-87.040s66.56-80.896 87.040-129.024c20.992-50.176 31.744-103.424 31.744-158.208 0-66.048-20.992-139.264-62.464-217.6-32.256-60.928-76.8-125.44-133.12-192-94.72-112.128-187.904-189.44-192-193.024l-17.92-15.872zM512 900.096c-190.976 0-346.112-155.136-346.112-346.112 0-217.6 271.36-473.088 346.112-539.648 31.744 28.16 99.328 90.624 165.888 169.472 118.272 139.776 180.224 267.776 180.224 370.176 0 190.976-155.136 346.112-346.112 346.112v0zM512 229.888c-120.32 0-218.112 97.792-218.112 218.112s97.792 218.112 218.112 218.112 218.112-97.792 218.112-218.112c0-120.32-97.792-218.112-218.112-218.112zM512 606.208c-87.040 0-158.208-71.168-158.208-158.208s71.168-158.208 158.208-158.208 158.208 71.168 158.208 158.208-71.168 158.208-158.208 158.208z" />
<glyph unicode="&#xe917;" glyph-name="返回箭头" d="M310.784 448l492.544 428.032c17.408 15.36 19.456 41.984 4.096 59.392s-41.984 19.456-59.392 4.096l-527.36-458.24c-10.24-8.704-14.336-20.992-13.824-33.28-0.512-12.288 3.584-24.576 13.824-33.28l526.848-458.752c8.192-7.168 17.92-10.24 27.648-10.24 11.776 0 23.552 5.12 31.744 14.336 15.36 17.408 13.312 44.032-4.096 59.392l-492.032 428.544z" />
<glyph unicode="&#xe918;" glyph-name="关闭2" d="M561.152 448l443.392 385.536c16.384 14.336 17.92 38.912 4.096 55.296-14.336 16.384-38.912 17.92-55.296 4.096l-441.344-384-441.344 384c-16.384 14.336-40.96 12.288-55.296-4.096s-12.288-40.96 4.096-55.296l443.392-385.536-443.392-385.536c-16.384-14.336-17.92-38.912-4.096-55.296 7.68-8.704 18.432-13.312 29.696-13.312 9.216 0 18.432 3.072 25.6 9.728l441.344 384 441.344-384c7.168-6.656 16.384-9.728 25.6-9.728 10.752 0 22.016 4.608 29.696 13.312 14.336 16.384 12.288 40.96-4.096 55.296l-443.392 385.536z" />
<glyph unicode="&#xe919;" glyph-name="缴费取药" d="M518.144 954.88c-402.944 0-512-229.376-512-512 0-327.68 167.936-512 512-512 282.624 0 512 120.832 512 512 0 282.624-106.496 512-512 512zM491.008 317.952c0-71.68-58.88-130.56-130.56-130.56v0c-71.68 0-130.56 58.88-130.56 130.56v109.568h261.632v-109.568zM491.008 458.24h-261.632v109.568c0 71.68 58.88 130.56 130.56 130.56v0c71.68 0 130.56-58.88 130.56-130.56v-109.568zM650.752 303.616c-69.632 7.68-124.928 67.584-124.928 139.264v0c0 71.68 54.784 131.584 124.928 139.264v-278.528zM806.4 442.88c0-71.68-54.784-131.584-124.928-139.264v278.528c70.144-7.68 124.928-67.584 124.928-139.264v0z" />
<glyph unicode="&#xe91a;" glyph-name="进入箭头" d="M774.656 470.528l-479.232 479.232c-13.824 13.824-36.352 13.824-50.176 0s-13.824-36.352 0-50.688l455.68-455.68-448-448c-13.312-13.312-13.312-35.328 0-49.152s35.328-13.824 49.152 0l465.408 465.408c2.048 2.048 2.56 4.096 4.096 6.144 1.024 1.024 2.56 1.024 3.584 2.048 13.312 14.336 13.312 36.864-0.512 50.688v0z" />
<glyph unicode="&#xe91b;" glyph-name="扫一扫" d="M372.224-64h-189.952c-100.352 0-181.76 81.408-181.76 181.76v174.080c0 23.040 18.944 41.984 41.984 41.984s41.984-18.944 41.984-41.984v-174.080c0-53.76 44.032-97.792 97.792-97.792h189.952c23.040 0 41.984-18.944 41.984-41.984s-18.944-41.984-41.984-41.984zM41.984 529.92c-23.040 0-41.984 18.944-41.984 41.984v206.336c0 100.352 81.408 181.76 181.76 181.76h189.952c23.040 0 41.984-18.944 41.984-41.984s-18.944-41.984-41.984-41.984h-189.952c-53.76 0-97.792-44.032-97.792-97.792v-206.336c0-23.040-18.432-41.984-41.984-41.984zM842.24-64h-189.952c-23.040 0-41.984 18.944-41.984 41.984s18.944 41.984 41.984 41.984h189.952c53.76 0 97.792 44.032 97.792 97.792v174.080c0 23.040 18.944 41.984 41.984 41.984s41.984-18.944 41.984-41.984v-174.080c0-99.84-81.408-181.76-181.76-181.76zM982.016 529.92c-23.040 0-41.984 18.944-41.984 41.984v206.336c0 53.76-44.032 97.792-97.792 97.792h-189.952c-23.040 0-41.984 18.944-41.984 41.984s18.944 41.984 41.984 41.984h189.952c100.352 0 181.76-81.408 181.76-181.76v-206.336c0-23.040-18.944-41.984-41.984-41.984zM748.032 406.016h-472.064c-23.040 0-41.984 18.944-41.984 41.984s18.944 41.984 41.984 41.984h472.064c23.040 0 41.984-18.944 41.984-41.984s-18.432-41.984-41.984-41.984z" />
<glyph unicode="&#xe91c;" glyph-name="首页-亮" d="M993.28 472.576v0l-422.912 456.192c-12.288 18.432-32.768 30.72-56.32 31.232h-1.024c-0.512 0-0.512 0-1.024 0-19.968 0-37.888-8.192-50.176-21.504h-0.512l-427.008-461.824v-0.512c-13.824-12.8-22.528-30.72-22.528-51.2 0-38.4 31.232-69.632 69.632-69.632 0.512 0 1.024 0 1.536 0v0h45.056v-232.448c0-102.4 13.824-186.368 116.224-186.368h162.816v325.632h209.408v-325.632h162.816c102.4 0 116.224 83.968 116.224 186.368v231.936h46.592c38.4 0 69.632 31.232 69.632 69.632 0.512 18.944-6.656 35.328-18.432 48.128z" />
<glyph unicode="&#xe91d;" glyph-name="首页" d="M761.344-64h-152.064c-19.456 0-35.328 15.872-35.328 35.328v267.776h-124.416v-267.776c0-19.456-15.872-35.328-35.328-35.328h-151.552c-143.872 0-143.872 146.432-143.872 208.896v181.248h-6.656c-0.512 0-1.024 0-1.536 0-55.296 0-100.352 45.056-100.352 100.352 0 26.112 10.24 51.2 28.672 69.632 0.512 0.512 1.024 1.536 1.536 2.048l397.824 430.080c1.024 1.024 2.048 2.048 3.072 3.072 18.944 18.432 43.52 28.672 70.144 28.672 0.512 0 1.536 0 2.048 0 1.024 0 2.56 0 3.584 0 30.208-1.536 58.368-16.896 75.776-41.472l392.704-422.912c1.024-1.024 2.048-2.56 3.072-4.096 15.36-18.432 24.064-40.96 23.552-65.024 0-55.296-45.056-100.352-100.352-100.352h-8.192v-181.248c1.024-62.464 1.024-208.896-142.336-208.896zM644.608 6.656h116.224c49.664 0 73.216 20.48 73.216 137.728v216.576c0 19.456 15.872 35.328 35.328 35.328h43.52c16.384 0 29.696 13.312 29.696 29.696 0 9.728-4.608 16.384-8.192 19.968-1.024 1.024-2.048 2.048-3.072 3.584l-389.632 420.352c-2.048 1.536-3.584 3.584-4.608 5.632-5.12 8.192-14.336 12.8-24.064 13.312-1.024 0-1.536 0-2.56 0-7.68-0.512-14.336-3.584-19.968-9.216-0.512-0.512-1.024-1.024-2.048-1.536l-393.216-424.96c-1.536-2.048-3.072-3.584-4.608-5.12-3.584-3.584-9.728-10.752-9.728-21.504 0-15.872 12.8-29.184 28.672-29.696 2.048 0 3.584 0 5.632 0h38.912c19.456 0 35.328-15.872 35.328-35.328v-216.576c0-117.248 23.552-138.24 73.216-138.24h116.224v267.776c0 19.456 15.872 35.328 35.328 35.328h195.072c19.456 0 35.328-15.872 35.328-35.328v-267.776z" />
<glyph unicode="&#xe91e;" glyph-name="支付成功" d="M511.488 959.488c-282.112 0-510.976-228.864-510.976-510.976s228.864-510.976 510.976-510.976c282.112 0 510.976 228.864 510.976 510.976s-228.864 510.976-510.976 510.976v0zM511.488 11.264c-241.152 0-436.736 195.584-436.736 436.736s195.584 436.736 436.736 436.736c241.152 0 436.736-195.584 436.736-436.736s-195.584-436.736-436.736-436.736v0zM772.608 570.88c-14.336 14.336-37.888 14.848-52.224 0l-265.216-263.168-128 117.76c-15.36 13.824-38.4 12.8-52.224-2.048-13.824-15.36-12.8-38.4 2.048-52.224l152.576-139.776c0 0 0 0 0.512-0.512 4.096-4.096 8.704-7.168 13.824-8.704v0c1.024-0.512 2.048-0.512 3.072-1.024h0.512c1.024 0 1.536-0.512 2.56-0.512h1.024c0.512 0 1.536 0 2.048 0h3.584c0.512 0 1.536 0 2.048 0h1.536c0.512 0 1.536 0 2.56 0.512h1.024c1.024 0 2.048 0.512 2.56 0.512h0.512c1.024 0.512 2.048 0.512 3.072 1.024 5.12 2.048 9.728 5.12 13.824 9.216 0 0 0 0.512 0.512 0.512l288.768 286.208c13.824 14.336 13.824 37.888-0.512 52.224v0z" />
<glyph unicode="&#xe91f;" glyph-name="微信支付" d="M603.136 447.488c-17.408 0-31.744-13.824-31.744-31.744 0-17.408 13.824-31.744 31.744-31.744 17.408 0 31.744 13.824 31.744 31.744 0 17.408-13.824 31.744-31.744 31.744zM499.712 588.288c22.528 0 39.936 17.92 39.936 39.936 0 22.528-17.408 39.936-39.936 39.936s-39.936-17.408-39.936-39.936c0-21.504 17.408-39.936 39.936-39.936zM287.744 668.672c-22.528 0-39.936-17.408-39.936-39.936 0-22.016 17.408-39.936 39.936-39.936s39.936 17.92 39.936 39.936c0 22.016-17.408 39.936-39.936 39.936zM837.12 942.592h-650.752c-96.256 0-175.104-77.824-175.104-172.544v-644.096c0-95.232 78.848-172.544 175.104-172.544h650.752c96.768 0 175.104 77.312 175.104 172.544v644.096c0 94.72-78.336 172.544-175.104 172.544zM390.656 281.6c-37.376 0-73.216 5.632-106.496 16.384l-105.984-52.736 26.624 89.6c-72.192 47.104-118.784 120.832-118.784 204.288 0 141.312 137.216 257.024 304.64 257.024 151.040 0 277.504-93.696 301.056-215.552-3.584 0-7.168 0-10.752 0-151.552 0-274.944-103.936-274.944-231.424 0-23.040 4.096-45.056 11.776-66.56-9.216-0.512-17.92-1.024-27.136-1.024zM837.632 176.128l22.528-76.288-89.088 44.544c-28.16-8.704-58.368-13.312-89.6-13.312-141.824 0-257.536 97.792-257.536 217.088s115.2 217.088 257.024 217.088 257.536-97.792 257.536-217.088c0-69.632-39.936-132.608-100.864-172.032zM769.024 447.488c-17.408 0-31.744-13.824-31.744-31.744 0-17.408 13.824-31.744 31.744-31.744s31.744 13.824 31.744 31.744c0 17.408-14.336 31.744-31.744 31.744z" />
<glyph unicode="&#xe920;" glyph-name="问好" d="M868.352 793.088c-196.608 189.44-516.608 189.44-713.216 0-95.232-92.16-147.968-214.528-147.968-345.088s52.736-252.928 147.968-345.088c98.304-94.72 227.328-141.824 356.352-141.824s258.048 47.104 356.352 141.824c95.744 92.16 147.968 214.528 147.968 345.088 1.024 130.56-51.712 252.928-147.456 345.088zM823.808 149.504c-172.032-165.888-451.584-165.376-623.616 0-82.944 79.872-128.512 185.856-128.512 298.496s45.568 218.624 128.512 298.496c86.016 82.944 198.656 124.416 311.808 124.416 112.64 0 225.792-41.472 311.808-124.416 82.944-79.872 128.512-185.856 128.512-298.496s-45.568-218.624-128.512-298.496zM503.808 247.808c-24.576 0-44.544-19.456-44.544-43.008s19.968-43.008 44.544-43.008c24.576 0 44.544 18.944 44.544 43.008s-19.968 43.008-44.544 43.008zM509.952 733.696c-86.528 0-163.328-48.128-190.464-119.808-6.144-16.896-11.776-44.544-6.144-67.584 3.584-15.872 20.992-26.624 37.376-23.040 16.896 3.584 27.648 19.968 23.552 36.352-2.048 8.192 0 23.040 4.096 33.792 14.848 39.424 61.44 79.872 131.584 79.872 82.432 0 139.776-40.448 139.776-98.304 0-43.52-28.16-58.88-77.312-82.944-44.544-21.504-100.352-48.64-100.352-116.736v-61.952c0-16.896 14.336-30.208 31.232-30.208 17.408 0 31.232 13.824 31.232 30.208v61.952c0 29.696 22.528 41.984 66.048 62.976 49.664 24.064 112.128 54.272 112.128 137.216 0 92.672-83.456 158.208-202.752 158.208z" />
<glyph unicode="&#xe921;" glyph-name="我的-亮" d="M677.376 438.784c73.216 51.712 121.344 137.216 121.344 233.984 0 158.208-128.512 286.72-286.72 286.72s-286.72-128.512-286.72-286.72c0-96.768 48.128-182.272 121.344-233.984-189.952-68.096-326.144-249.344-326.144-462.336 0-22.016 17.92-39.936 39.936-39.936s39.936 17.92 39.936 39.936c0 219.136 172.032 398.336 388.096 410.624 7.68-0.512 15.872-1.024 24.064-1.024s15.872 0.512 24.064 1.024c216.064-12.288 388.096-191.488 388.096-410.624 0-22.016 17.92-39.936 39.936-39.936s38.912 17.92 38.912 39.936c0 212.992-136.192 394.24-326.144 462.336zM304.64 672.768c0 114.176 93.184 207.36 207.36 207.36s207.36-93.184 207.36-207.36c0-106.496-80.896-194.56-184.832-205.824-7.68 0.512-14.848 1.024-22.528 1.024s-14.848-1.024-22.528-1.024c-103.424 11.264-184.832 99.328-184.832 205.824zM679.936 439.296c72.192 52.224 119.296 137.216 119.296 232.96 0 158.72-129.024 287.744-287.744 287.744s-287.744-129.024-287.744-287.744c0-95.744 47.104-180.736 119.296-232.96-188.416-69.12-323.584-249.344-323.584-461.312 0-0.512 0-1.024 0-2.048 1.024-22.016 18.944-39.424 40.96-39.424h901.632c22.016 0 40.448 17.408 40.96 39.424 0 0.512 0 1.024 0 2.048 0.512 211.968-134.656 392.192-323.072 461.312z" />
<glyph unicode="&#xe922;" glyph-name="我的" d="M677.376 438.784c73.216 51.712 121.344 137.216 121.344 233.984 0 158.208-128.512 286.72-286.72 286.72s-286.72-128.512-286.72-286.72c0-96.768 48.128-182.272 121.344-233.984-189.952-68.096-326.144-249.344-326.144-462.336 0-22.016 17.92-39.936 39.936-39.936s39.936 17.92 39.936 39.936c0 219.136 172.032 398.336 388.096 410.624 7.68-0.512 15.872-1.024 24.064-1.024s15.872 0.512 24.064 1.024c216.064-12.288 388.096-191.488 388.096-410.624 0-22.016 17.92-39.936 39.936-39.936s38.912 17.92 38.912 39.936c0 212.992-136.192 394.24-326.144 462.336zM304.64 672.768c0 114.176 93.184 207.36 207.36 207.36s207.36-93.184 207.36-207.36c0-106.496-80.896-194.56-184.832-205.824-7.68 0.512-14.848 1.024-22.528 1.024s-14.848-1.024-22.528-1.024c-103.424 11.264-184.832 99.328-184.832 205.824z" />
<glyph unicode="&#xe923;" glyph-name="消息2" d="M272.896-64c-6.656 0-13.312 2.048-19.456 5.632-12.288 7.68-18.944 22.016-16.896 36.864l21.504 143.872c-158.72 79.872-256 226.816-256 389.12 0 247.296 228.864 449.024 510.464 449.024s510.464-201.216 510.464-449.024-229.376-449.024-510.976-449.024c-14.336 0-29.184 0.512-44.544 1.536l-173.568-121.344c-6.144-4.608-13.312-6.656-20.992-6.656zM512 886.272c-240.64 0-436.736-168.448-436.736-375.296 0-141.312 91.136-269.312 238.080-333.824 15.36-6.656 24.064-22.528 21.504-38.912l-12.8-86.016 114.176 79.872c7.168 5.12 15.872 7.168 24.576 6.656 17.408-1.536 34.304-2.56 50.688-2.56 240.64 0 436.736 168.448 436.736 375.296 0.512 206.848-195.584 374.784-436.224 374.784z" />
<glyph unicode="&#xe924;" glyph-name="消息（亮）" d="M512 960c-281.6 0-510.464-201.216-510.464-449.024 0-162.304 97.28-309.248 256-389.12l-21.504-143.872c-2.048-14.336 4.608-29.184 16.896-36.864 6.144-3.584 12.8-5.632 19.456-5.632 7.168 0 14.848 2.048 20.992 6.656l173.568 121.344c14.848-1.024 30.208-1.536 44.544-1.536 281.6 0 510.464 201.216 510.464 449.024s-228.352 449.024-509.952 449.024z" />
<glyph unicode="&#xe925;" glyph-name="选择方式" d="M512-64c-282.624 0-512 229.376-512 512s229.376 512 512 512 512-229.376 512-512-229.376-512-512-512zM808.448 616.96c-16.896 16.896-43.52 16.896-60.416 0l-321.536-321.536-139.264 139.264c-16.896 16.896-43.52 16.896-60.416 0s-16.896-43.52 0-60.416l168.448-168.448c12.8-12.8 31.744-15.36 47.616-8.704 5.632 2.048 11.264 5.12 15.872 9.728l349.696 349.696c16.896 16.384 16.896 43.52 0 60.416z" />
<glyph unicode="&#xe926;" glyph-name="选择方式（未选择）" d="M512-64c-282.112 0-512 229.888-512 512s229.888 512 512 512 512-229.376 512-512-229.888-512-512-512zM512 904.192c-251.392 0-456.192-204.8-456.192-456.192s204.8-456.192 456.192-456.192 456.192 204.8 456.192 456.192-204.8 456.192-456.192 456.192z" />
<glyph unicode="&#xe927;" glyph-name="预约挂号" d="M518.656 323.072h-13.312c-7.168 0-13.312-6.144-13.312-13.312v-39.424c0-7.168 6.144-13.312 13.312-13.312h13.312c7.168 0 13.312 6.144 13.312 13.312v39.424c0 7.168-6.144 13.312-13.312 13.312zM413.184 415.232h-13.312c-7.168 0-13.312-6.144-13.312-13.312v-39.424c0-7.168 6.144-13.312 13.312-13.312h13.312c7.168 0 13.312 6.144 13.312 13.312v39.424c0 7.168-6.144 13.312-13.312 13.312zM413.184 323.072h-13.312c-7.168 0-13.312-6.144-13.312-13.312v-39.424c0-7.168 6.144-13.312 13.312-13.312h13.312c7.168 0 13.312 6.144 13.312 13.312v39.424c0 7.168-6.144 13.312-13.312 13.312zM525.312 612.864h-32.768v32.768c0 10.752-8.704 19.968-19.968 19.968h-26.112c-10.752 0-19.968-8.704-19.968-19.968v-32.768h-32.768c-10.752 0-19.968-8.704-19.968-19.968v-26.112c0-10.752 8.704-19.968 19.968-19.968h32.768v-32.768c0-10.752 8.704-19.968 19.968-19.968h26.112c10.752 0 19.968 8.704 19.968 19.968v32.768h32.768c10.752 0 19.968 8.704 19.968 19.968v26.112c-0.512 11.264-9.216 19.968-19.968 19.968zM518.656 415.232h-13.312c-7.168 0-13.312-6.144-13.312-13.312v-39.424c0-7.168 6.144-13.312 13.312-13.312h13.312c7.168 0 13.312 6.144 13.312 13.312v39.424c0 7.168-6.144 13.312-13.312 13.312zM512 960c-402.944 0-512-229.376-512-512 0-327.68 167.936-512 512-512 282.624 0 512 120.832 512 512 0 282.624-106.496 512-512 512zM782.336 197.632c0-10.752-8.704-19.968-19.968-19.968h-500.736c-10.752 0-19.968 8.704-19.968 19.968v26.112c0 10.752 8.704 19.968 19.968 19.968h32.768v421.888c0 29.184 23.552 52.736 52.736 52.736h224.256c29.184 0 52.736-23.552 52.736-52.736v-421.888h26.112v210.944c0 7.168 6.144 13.312 13.312 13.312h39.424c19.456 0 26.112-19.968 26.112-39.424v-184.32h32.768c10.752 0 19.968-8.704 19.968-19.968v-26.624z" />
<glyph unicode="&#xe928;" glyph-name="支付宝支付" d="M855.552 952.32h-687.104c-89.6 0-162.304-72.192-162.304-161.792v-685.056c0-89.088 72.704-161.28 162.304-161.28h687.104c89.6 0 162.304 72.192 162.304 161.28v6.656c0 0-263.168 109.568-395.776 173.056-89.6-109.568-204.288-175.616-323.584-175.616-201.216 0-269.824 176.128-174.592 291.84 20.992 25.088 56.32 49.152 111.616 62.976 86.016 21.504 222.72-13.312 351.232-55.296 23.040 42.496 43.008 89.6 56.832 139.264h-395.264v39.936h203.776v71.68h-247.296v39.936h246.784v102.4c0 0 0 16.896 17.92 16.896h99.328v-119.296h244.224v-39.936h-244.224v-71.68h199.168c-18.944-77.824-48.128-149.504-83.968-212.48 59.904-22.016 114.688-42.496 154.624-55.808 145.92-48.64 178.688-51.2 178.688-51.2v-0.512 522.24c0 89.6-72.704 161.792-161.792 161.792v0zM252.416 404.48c-25.088-2.56-72.704-13.824-98.816-36.864-77.312-67.584-30.72-190.976 125.952-190.976 91.648 0 183.296 57.856 254.976 151.552-102.4 50.176-188.928 85.504-282.112 76.288v0z" />
<glyph unicode="&#xe929;" glyph-name="支付中" d="M328.704 156.16c-80.896 46.592-136.704 119.808-159.744 202.752-21.504 76.288-14.336 157.696 20.48 228.864 46.080 95.232 132.096 160.256 230.912 185.344 16.384 4.096 33.28 7.168 49.664 9.216l-60.928 121.344c-8.192-1.536-15.872-3.584-24.064-5.632-135.68-34.816-255.488-124.928-318.976-256-48.128-98.304-57.856-210.944-28.16-316.416v-0.512c33.28-118.272 115.2-223.232 233.984-286.72l-49.152-102.4 295.936 75.264-133.632 262.656-56.32-117.76zM986.112 567.296c-32.768 117.248-113.664 221.696-231.424 285.696l52.224 107.52-296.448-74.24 132.608-263.168 54.272 112.128c79.872-46.592 134.656-119.296 157.696-201.216 20.48-73.728 15.872-154.112-20.48-228.864-46.080-95.232-132.096-160.256-230.912-185.344-14.336-3.584-28.672-6.656-43.52-8.192l60.928-120.32c5.632 1.536 11.776 2.56 17.408 4.096 135.68 34.304 255.488 124.928 318.976 256 48.128 97.792 58.368 210.432 28.672 315.904z" />
<glyph unicode="&#xe92a;" glyph-name="支付失败" d="M873.472 809.472c-96.768 96.256-225.28 149.504-361.984 149.504s-265.216-53.248-361.984-149.504c-96.768-96.768-150.016-224.768-150.016-361.472s53.248-264.704 150.016-361.472c96.768-96.256 225.28-149.504 361.984-149.504s265.216 53.248 361.984 149.504c199.168 199.68 199.168 523.776 0 722.944v0zM826.368 134.144c-83.968-83.968-196.096-130.048-314.88-130.048s-230.912 46.080-314.88 130.048c-83.968 83.968-130.048 195.584-130.048 314.368s46.080 230.4 130.56 314.368c83.968 83.968 196.096 130.048 314.88 130.048s230.912-46.080 314.88-130.048c173.056-173.568 173.056-455.168-0.512-628.736v0zM684.544 614.4c-33.28 0-59.904-26.624-59.904-59.904 0-32.768 26.624-59.904 59.904-59.904s59.904 26.624 59.904 59.904c0 32.768-27.136 59.904-59.904 59.904v0zM365.568 495.104c33.28 0 59.904 26.624 59.904 59.904 0 32.768-26.624 59.904-59.904 59.904-32.768 0-59.904-26.624-59.904-59.904s26.624-59.904 59.904-59.904v0zM512 361.984c-83.456 0-157.696-44.032-201.216-111.104-13.312-20.48 1.536-48.64 25.6-48.64h2.56c9.728 0 19.456 4.608 24.576 12.8 32.768 49.152 87.040 80.896 148.48 80.896 61.952 0 116.736-31.744 148.992-80.896 5.632-8.192 14.848-12.8 24.576-12.8h1.536c24.064 0 38.912 27.648 25.6 48.64-43.52 67.072-117.248 111.104-200.704 111.104v0z" />
<glyph unicode="&#xe92b;" glyph-name="loading-(6)" d="M450.287 898.56c248.832 0 450.56-201.728 450.56-450.56 0-33.932 27.508-61.44 61.44-61.44s61.44 27.508 61.44 61.44v0c0 282.761-229.239 512-512 512-275.012 0-499.302-216.815-511.42-488.789 12.049 238.012 208.896 427.349 449.98 427.349zM573.747-2.56c-248.832 0-450.56 201.728-450.56 450.56 0 33.932-27.508 61.44-61.44 61.44s-61.44-27.508-61.44-61.44v0c0-282.761 229.205-512 512-512 274.978 0 499.268 216.815 511.42 488.789-12.083-238.046-208.896-427.349-449.98-427.349z" />
<glyph unicode="&#xe92c;" glyph-name="loading-(1)" d="M512 960c-278.741 0-505.429-222.763-511.829-499.968 5.888 241.835 189.824 435.968 415.829 435.968 229.76 0 416-200.619 416-448 0-53.019 42.981-96 96-96s96 42.981 96 96v0c0 282.795-229.205 512-512 512zM512-64c278.741 0 505.429 222.763 511.829 499.968-5.888-241.835-189.824-435.968-415.829-435.968-229.76 0-416 200.619-416 448 0 53.019-42.981 96-96 96s-96-42.981-96-96v0c0-282.795 229.205-512 512-512z" />
<glyph unicode="&#xe92d;" d="M476.16 857.6h71.68v-204.8h-71.68v204.8z" />
<glyph unicode="&#xe92e;" glyph-name="正在建设中（2）" d="M707.072 466.432l42.496 52.736-4.096 10.752c-4.608 14.848-10.752 27.648-18.432 39.936-6.656 12.8-14.848 23.040-23.552 33.792l-8.704 8.704-65.536-8.704c-12.8 0-27.648 8.192-31.744 20.992l-20.992 61.44-12.8 2.048c-33.792 6.144-70.144 6.144-103.936 0l-10.752-2.048-23.552-63.488c-4.096-12.8-18.944-20.992-31.744-18.944l-63.488 10.752-8.704-8.704c-18.944-23.552-31.744-48.64-42.496-76.288l-4.096-10.752 42.496-50.688c8.704-10.24 8.704-27.136 0-37.888l-42.496-50.688 4.096-10.752c4.096-14.848 10.24-29.696 18.944-42.496 6.656-12.8 14.848-23.040 23.552-33.792l8.704-8.704 65.536 10.752c12.8 2.048 27.648-6.144 31.744-18.944l20.992-63.488 12.8-2.048c33.792-8.704 72.192-8.704 105.984 0l10.752 2.048 20.992 63.488c4.096 12.8 18.944 20.992 31.744 18.944l63.488-10.752 8.704 10.752c16.896 21.504 31.744 46.592 40.448 74.24l4.096 11.264-40.448 48.64c-8.704 10.24-8.704 27.136 0 37.888zM678.912 329.728l-37.888 6.144c-31.744 6.144-67.584-14.848-78.336-46.592l-14.848-42.496c-20.992-4.096-42.496-4.096-63.488 0l-12.8 40.448c-10.752 31.744-44.544 52.736-78.336 48.64l-42.496-6.144c-4.608 4.096-6.656 10.752-10.752 16.896-6.656 8.704-8.704 16.896-12.8 25.6l27.648 31.744c20.992 27.648 20.992 67.584 0 93.184l-27.648 31.744c6.656 14.848 12.8 29.696 23.552 42.496l37.888-6.144c31.744-6.144 67.584 14.848 78.336 46.592l14.848 40.448c20.992 4.096 42.496 4.096 63.488 0l12.8-37.888c10.752-31.744 44.544-52.736 78.336-48.64l40.448 4.096 12.8-18.944c4.096-8.192 8.704-16.896 12.8-24.064l-27.648-33.792c-18.944-25.6-18.944-65.536 2.048-91.136l25.6-29.696c-6.656-14.848-14.336-29.696-23.552-42.496zM512 553.984c-59.392 0-105.984-46.592-105.984-105.984s46.592-105.984 105.984-105.984c56.832 0 105.984 48.64 105.984 105.984 0 59.392-46.592 105.984-105.984 105.984zM512 384c-36.352 0-63.488 27.648-63.488 63.488s27.648 63.488 63.488 63.488 63.488-27.648 63.488-63.488-27.648-63.488-63.488-63.488z" />
<glyph unicode="&#xe92f;" glyph-name="正在建设中（1）" d="M898.048 603.648h-847.36v-438.272c0-35.84 27.648-63.488 63.488-63.488h508.416c12.8 0 20.992-8.704 20.992-20.992 0-12.8-8.704-20.992-20.992-20.992h-508.416c-59.392 0-105.984 46.592-105.984 105.984v571.392c0 59.392 46.592 105.984 105.984 105.984h720.384c59.392 0 105.984-46.592 105.984-105.984v-182.272c0-12.8-8.704-20.992-20.992-20.992s-20.992 8.704-20.992 20.992v48.64h-0.512zM898.048 646.144v91.136c0 35.84-27.648 63.488-63.488 63.488h-720.384c-35.84 0-63.488-27.648-63.488-63.488v-91.136h847.36zM686.592 698.88c-12.8 0-20.992 8.704-20.992 20.992s8.704 20.992 20.992 20.992c12.8 0 20.992-8.704 20.992-20.992s-8.704-20.992-20.992-20.992v0zM750.080 698.88c-12.8 0-20.992 8.704-20.992 20.992s8.704 20.992 20.992 20.992c12.8 0 20.992-8.704 20.992-20.992s-8.192-20.992-20.992-20.992v0zM813.568 698.88c-12.8 0-20.992 8.704-20.992 20.992s8.704 20.992 20.992 20.992c12.8 0 20.992-8.704 20.992-20.992s-8.192-20.992-20.992-20.992v0zM349.184 449.024c6.144 10.752 18.944 12.8 29.696 8.704 10.752-6.144 12.8-18.944 8.704-29.696l-105.984-184.32c-6.144-10.752-18.944-12.8-29.696-8.704s-12.8 18.944-8.704 29.696l105.984 184.32zM218.112 442.88l-57.344-93.184 57.344-97.28c6.144-10.752 2.048-23.552-8.704-29.696s-23.552-2.048-29.696 8.704l-70.144 118.784 70.144 114.176c6.144 10.752 18.944 12.8 29.696 6.144 10.752-4.608 13.312-16.896 8.704-27.648v0zM413.184 251.904l57.344 97.28-57.344 93.184c-6.144 10.752-2.048 23.552 6.144 29.696 10.752 6.144 23.552 2.048 29.696-6.144l70.144-114.176-70.144-118.784c-6.144-10.752-18.944-12.8-29.696-8.704-8.192 4.608-10.24 19.456-6.144 27.648v0z" />
<glyph unicode="&#xe930;" d="M685.761 820.64l62.077-35.84-102.4-177.362-62.077 35.84 102.4 177.362z" />
<glyph unicode="&#xe931;" d="M848.8 683.832l35.84-62.077-177.362-102.4-35.84 62.077 177.362 102.4z" />
<glyph unicode="&#xe932;" d="M921.6 483.84v-71.68h-204.8v71.68h204.8z" />
<glyph unicode="&#xe933;" d="M884.64 274.236l-35.84-62.077-177.362 102.4 35.84 62.077 177.362-102.4z" />
<glyph unicode="&#xe934;" d="M747.853 111.2l-62.077-35.84-102.4 177.362 62.077 35.84 102.4-177.362z" />
<glyph unicode="&#xe935;" d="M547.84 38.4h-71.68v204.8h71.68v-204.8z" />
<glyph unicode="&#xe936;" d="M338.224 75.36l-62.077 35.84 102.4 177.362 62.077-35.84-102.4-177.362z" />
<glyph unicode="&#xe937;" d="M175.2 212.159l-35.84 62.077 177.362 102.4 35.84-62.077-177.362-102.4z" />
<glyph unicode="&#xe938;" d="M102.4 412.16v71.68h204.8v-71.68h-204.8z" />
<glyph unicode="&#xe939;" d="M139.36 621.755l35.84 62.077 177.362-102.4-35.84-62.077-177.362 102.4z" />
<glyph unicode="&#xe93a;" d="M276.163 784.8l62.077 35.84 102.4-177.362-62.077-35.84-102.4 177.362z" />
<glyph unicode="&#xe93b;" glyph-name="资料" d="M238.592 912.384c-51.2 0-93.184-41.984-93.184-93.184v-744.96c0-51.2 41.984-93.184 93.184-93.184h546.816c51.2 0 93.184 41.984 93.184 93.184v543.232c0 26.624-19.968 46.592-46.592 46.592h-155.136c-26.624 0-46.592 19.968-46.592 46.592v155.136c0 26.624-21.504 46.592-46.592 46.592 0 0-345.088 0-345.088 0zM339.456 214.016c-12.288 0-23.040 10.752-23.040 23.040s10.752 23.040 23.040 23.040h345.088c12.288 0 23.040-10.752 23.040-23.040s-10.752-23.040-23.040-23.040c0 0-345.088 0-345.088 0zM339.456 369.152c-12.288 0-23.040 10.752-23.040 23.040s10.752 23.040 23.040 23.040h345.088c12.288 0 23.040-10.752 23.040-23.040s-10.752-23.040-23.040-23.040c0 0-345.088 0-345.088 0zM339.456 524.288c-12.288 0-23.040 10.752-23.040 23.040s10.752 23.040 23.040 23.040h205.824c12.288 0 23.040-10.752 23.040-23.040s-10.752-23.040-23.040-23.040h-205.824zM844.288 709.12c16.896 0 21.504 10.752 10.752 23.040l-155.136 159.744c-12.288 12.288-21.504 7.68-21.504-9.216v-126.976c0-26.624 19.968-46.592 46.592-46.592h119.296z" />
</font>
</defs>
</svg>
